<svg xmlns="http://www.w3.org/2000/svg" width="1254" height="1254" viewBox="0 0 1254 1254">
<defs>
<pattern id="dots" width="9" height="9" patternUnits="userSpaceOnUse"><circle cx="1.2" cy="1.2" r="0.65" fill="#ece8dc" opacity="0.65"/></pattern>
<filter id="shadow" x="-20%" y="-20%" width="140%" height="140%"><feDropShadow dx="0" dy="18" stdDeviation="20" flood-color="#111" flood-opacity="0.18"/></filter>
<marker id="arrow" markerWidth="10" markerHeight="10" refX="8" refY="4" orient="auto"><path d="M0,0 L9,4 L0,8 Z" fill="#2d2af4"/></marker>
</defs>
<rect width="1254" height="1254" fill="#2d2af4"/>
<rect x="58" y="58" width="1138" height="1138" rx="42" fill="#fbfaf6" filter="url(#shadow)"/>
<rect x="58" y="58" width="1138" height="1138" rx="42" fill="url(#dots)" opacity="0.82"/>
<text x="105.0" y="145.0" font-size="52" font-family="Georgia,serif" font-weight="800" fill="#090909" text-anchor="start" >Baseline vs memory</text>
<text x="108.0" y="190.0" font-size="24" font-family="monospace" font-weight="700" fill="#4a4d57" text-anchor="start" >Each dot is one DeepSWE task · above line = OM improved</text>
<line x1="210.0" y1="300" x2="210.0" y2="985" stroke="#c9c9c9" stroke-width="1.2" stroke-dasharray="2 5"/>
<line x1="210" y1="985.0" x2="1090" y2="985.0" stroke="#c9c9c9" stroke-width="1.2" stroke-dasharray="2 5"/>
<text x="210.0" y="1021.0" font-size="22" font-family="monospace" font-weight="600" fill="#4a4d57" text-anchor="middle" >0%</text>
<text x="196.0" y="993.0" font-size="22" font-family="monospace" font-weight="600" fill="#4a4d57" text-anchor="end" >0%</text>
<line x1="430.0" y1="300" x2="430.0" y2="985" stroke="#c9c9c9" stroke-width="1.2" stroke-dasharray="2 5"/>
<line x1="210" y1="813.8" x2="1090" y2="813.8" stroke="#c9c9c9" stroke-width="1.2" stroke-dasharray="2 5"/>
<text x="430.0" y="1021.0" font-size="22" font-family="monospace" font-weight="600" fill="#4a4d57" text-anchor="middle" >25%</text>
<text x="196.0" y="821.8" font-size="22" font-family="monospace" font-weight="600" fill="#4a4d57" text-anchor="end" >25%</text>
<line x1="650.0" y1="300" x2="650.0" y2="985" stroke="#c9c9c9" stroke-width="1.2" stroke-dasharray="2 5"/>
<line x1="210" y1="642.5" x2="1090" y2="642.5" stroke="#c9c9c9" stroke-width="1.2" stroke-dasharray="2 5"/>
<text x="650.0" y="1021.0" font-size="22" font-family="monospace" font-weight="600" fill="#4a4d57" text-anchor="middle" >50%</text>
<text x="196.0" y="650.5" font-size="22" font-family="monospace" font-weight="600" fill="#4a4d57" text-anchor="end" >50%</text>
<line x1="870.0" y1="300" x2="870.0" y2="985" stroke="#c9c9c9" stroke-width="1.2" stroke-dasharray="2 5"/>
<line x1="210" y1="471.2" x2="1090" y2="471.2" stroke="#c9c9c9" stroke-width="1.2" stroke-dasharray="2 5"/>
<text x="870.0" y="1021.0" font-size="22" font-family="monospace" font-weight="600" fill="#4a4d57" text-anchor="middle" >75%</text>
<text x="196.0" y="479.2" font-size="22" font-family="monospace" font-weight="600" fill="#4a4d57" text-anchor="end" >75%</text>
<line x1="1090.0" y1="300" x2="1090.0" y2="985" stroke="#c9c9c9" stroke-width="1.2" stroke-dasharray="2 5"/>
<line x1="210" y1="300.0" x2="1090" y2="300.0" stroke="#c9c9c9" stroke-width="1.2" stroke-dasharray="2 5"/>
<text x="1090.0" y="1021.0" font-size="22" font-family="monospace" font-weight="600" fill="#4a4d57" text-anchor="middle" >100%</text>
<text x="196.0" y="308.0" font-size="22" font-family="monospace" font-weight="600" fill="#4a4d57" text-anchor="end" >100%</text>
<line x1="210" y1="985" x2="1090" y2="300" stroke="#090909" stroke-width="3" opacity="0.35"/>
<line x1="210" y1="300" x2="210" y2="985" stroke="#090909" stroke-width="3"/>
<line x1="210" y1="985" x2="1090" y2="985" stroke="#090909" stroke-width="3"/>
<circle cx="822.2" cy="329.8" r="7" fill="#2d2af4" opacity="0.78"/>
<circle cx="796.7" cy="699.6" r="7" fill="#2d2af4" opacity="0.78"/>
<circle cx="1090.0" cy="300.0" r="7" fill="#090909" opacity="0.34"/>
<circle cx="1088.7" cy="985.0" r="7" fill="#090909" opacity="0.78"/>
<circle cx="873.6" cy="490.9" r="7" fill="#2d2af4" opacity="0.34"/>
<circle cx="210.0" cy="305.7" r="7" fill="#2d2af4" opacity="0.78"/>
<circle cx="1055.8" cy="320.0" r="7" fill="#6b4cff" opacity="0.34"/>
<circle cx="953.8" cy="308.2" r="7" fill="#6b4cff" opacity="0.78"/>
<circle cx="1087.4" cy="301.2" r="7" fill="#090909" opacity="0.34"/>
<circle cx="1071.1" cy="322.1" r="7" fill="#090909" opacity="0.34"/>
<circle cx="1060.9" cy="337.7" r="7" fill="#6b4cff" opacity="0.34"/>
<circle cx="1087.5" cy="378.2" r="7" fill="#090909" opacity="0.78"/>
<circle cx="1080.0" cy="305.9" r="7" fill="#090909" opacity="0.34"/>
<circle cx="210.0" cy="985.0" r="7" fill="#2d2af4" opacity="0.34"/>
<circle cx="1043.7" cy="894.9" r="7" fill="#6b4cff" opacity="0.78"/>
<circle cx="1051.2" cy="319.8" r="7" fill="#6b4cff" opacity="0.34"/>
<circle cx="951.1" cy="408.2" r="7" fill="#6b4cff" opacity="0.34"/>
<circle cx="1084.6" cy="302.8" r="7" fill="#090909" opacity="0.34"/>
<circle cx="1089.0" cy="300.7" r="7" fill="#090909" opacity="0.34"/>
<circle cx="1083.2" cy="507.0" r="7" fill="#090909" opacity="0.78"/>
<circle cx="1084.1" cy="303.3" r="7" fill="#090909" opacity="0.34"/>
<circle cx="1074.8" cy="341.3" r="7" fill="#090909" opacity="0.34"/>
<circle cx="1083.2" cy="303.2" r="7" fill="#090909" opacity="0.34"/>
<circle cx="1089.3" cy="301.6" r="7" fill="#090909" opacity="0.34"/>
<circle cx="736.5" cy="575.2" r="7" fill="#2d2af4" opacity="0.34"/>
<circle cx="1041.6" cy="300.0" r="7" fill="#6b4cff" opacity="0.78"/>
<circle cx="906.1" cy="811.2" r="7" fill="#2d2af4" opacity="0.78"/>
<circle cx="1089.0" cy="300.8" r="7" fill="#090909" opacity="0.34"/>
<circle cx="1060.1" cy="313.8" r="7" fill="#6b4cff" opacity="0.34"/>
<circle cx="210.3" cy="301.9" r="7" fill="#2d2af4" opacity="0.78"/>
<circle cx="1061.1" cy="300.0" r="7" fill="#6b4cff" opacity="0.34"/>
<circle cx="1075.9" cy="311.0" r="7" fill="#090909" opacity="0.34"/>
<circle cx="210.0" cy="372.1" r="7" fill="#2d2af4" opacity="0.78"/>
<circle cx="1025.3" cy="350.4" r="7" fill="#6b4cff" opacity="0.34"/>
<circle cx="858.4" cy="624.5" r="7" fill="#2d2af4" opacity="0.78"/>
<circle cx="619.7" cy="559.8" r="7" fill="#2d2af4" opacity="0.78"/>
<circle cx="1084.7" cy="303.3" r="7" fill="#090909" opacity="0.34"/>
<circle cx="1026.1" cy="303.8" r="7" fill="#6b4cff" opacity="0.78"/>
<circle cx="1051.7" cy="389.3" r="7" fill="#6b4cff" opacity="0.78"/>
<circle cx="210.0" cy="462.5" r="7" fill="#2d2af4" opacity="0.78"/>
<circle cx="838.6" cy="300.0" r="7" fill="#2d2af4" opacity="0.78"/>
<circle cx="1078.7" cy="302.9" r="7" fill="#090909" opacity="0.34"/>
<circle cx="1052.1" cy="301.5" r="7" fill="#6b4cff" opacity="0.34"/>
<circle cx="1075.4" cy="301.4" r="7" fill="#090909" opacity="0.34"/>
<circle cx="717.7" cy="932.3" r="7" fill="#2d2af4" opacity="0.78"/>
<circle cx="935.4" cy="512.9" r="7" fill="#2d2af4" opacity="0.78"/>
<circle cx="956.1" cy="359.6" r="7" fill="#6b4cff" opacity="0.78"/>
<circle cx="1071.0" cy="312.8" r="7" fill="#6b4cff" opacity="0.34"/>
<circle cx="671.0" cy="756.7" r="7" fill="#2d2af4" opacity="0.78"/>
<circle cx="1020.1" cy="322.7" r="7" fill="#6b4cff" opacity="0.34"/>
<circle cx="210.0" cy="306.3" r="7" fill="#2d2af4" opacity="0.78"/>
<circle cx="210.0" cy="305.0" r="7" fill="#2d2af4" opacity="0.78"/>
<circle cx="1079.9" cy="314.3" r="7" fill="#090909" opacity="0.34"/>
<circle cx="699.3" cy="364.5" r="7" fill="#2d2af4" opacity="0.78"/>
<circle cx="1045.8" cy="362.0" r="7" fill="#6b4cff" opacity="0.34"/>
<circle cx="1083.3" cy="315.7" r="7" fill="#090909" opacity="0.34"/>
<circle cx="930.8" cy="322.8" r="7" fill="#2d2af4" opacity="0.78"/>
<circle cx="914.0" cy="325.5" r="7" fill="#2d2af4" opacity="0.78"/>
<circle cx="210.0" cy="930.4" r="7" fill="#2d2af4" opacity="0.78"/>
<circle cx="1071.3" cy="304.9" r="7" fill="#090909" opacity="0.34"/>
<circle cx="210.0" cy="300.2" r="7" fill="#2d2af4" opacity="0.78"/>
<circle cx="1086.8" cy="300.1" r="7" fill="#090909" opacity="0.34"/>
<circle cx="1078.1" cy="303.7" r="7" fill="#090909" opacity="0.34"/>
<circle cx="1060.2" cy="306.2" r="7" fill="#6b4cff" opacity="0.34"/>
<circle cx="1089.3" cy="300.0" r="7" fill="#090909" opacity="0.34"/>
<circle cx="1060.2" cy="312.0" r="7" fill="#6b4cff" opacity="0.34"/>
<circle cx="767.9" cy="324.0" r="7" fill="#2d2af4" opacity="0.78"/>
<circle cx="1088.5" cy="300.6" r="7" fill="#090909" opacity="0.34"/>
<circle cx="1065.1" cy="319.4" r="7" fill="#6b4cff" opacity="0.34"/>
<circle cx="1060.7" cy="334.2" r="7" fill="#6b4cff" opacity="0.34"/>
<circle cx="1070.0" cy="432.3" r="7" fill="#6b4cff" opacity="0.78"/>
<circle cx="721.0" cy="985.0" r="7" fill="#2d2af4" opacity="0.78"/>
<circle cx="601.1" cy="376.1" r="7" fill="#2d2af4" opacity="0.78"/>
<circle cx="1074.7" cy="414.5" r="7" fill="#090909" opacity="0.78"/>
<circle cx="210.0" cy="360.4" r="7" fill="#2d2af4" opacity="0.78"/>
<circle cx="812.3" cy="519.0" r="7" fill="#2d2af4" opacity="0.34"/>
<circle cx="714.1" cy="346.6" r="7" fill="#2d2af4" opacity="0.78"/>
<circle cx="935.9" cy="360.0" r="7" fill="#2d2af4" opacity="0.78"/>
<circle cx="1062.8" cy="314.1" r="7" fill="#6b4cff" opacity="0.34"/>
<circle cx="914.0" cy="345.7" r="7" fill="#2d2af4" opacity="0.78"/>
<circle cx="1080.5" cy="303.3" r="7" fill="#090909" opacity="0.34"/>
<circle cx="519.2" cy="355.5" r="7" fill="#2d2af4" opacity="0.78"/>
<circle cx="1068.0" cy="314.1" r="7" fill="#6b4cff" opacity="0.34"/>
<circle cx="1072.4" cy="313.7" r="7" fill="#090909" opacity="0.34"/>
<circle cx="939.1" cy="456.6" r="7" fill="#6b4cff" opacity="0.78"/>
<circle cx="1066.0" cy="300.0" r="7" fill="#6b4cff" opacity="0.34"/>
<circle cx="1070.6" cy="306.5" r="7" fill="#6b4cff" opacity="0.34"/>
<circle cx="891.1" cy="331.2" r="7" fill="#2d2af4" opacity="0.78"/>
<circle cx="1084.3" cy="307.3" r="7" fill="#090909" opacity="0.34"/>
<circle cx="1089.2" cy="300.0" r="7" fill="#090909" opacity="0.34"/>
<circle cx="1071.8" cy="306.8" r="7" fill="#090909" opacity="0.34"/>
<circle cx="210.0" cy="320.0" r="7" fill="#2d2af4" opacity="0.78"/>
<circle cx="982.2" cy="366.4" r="7" fill="#6b4cff" opacity="0.34"/>
<circle cx="947.3" cy="614.7" r="7" fill="#6b4cff" opacity="0.78"/>
<circle cx="1053.6" cy="314.2" r="7" fill="#6b4cff" opacity="0.34"/>
<circle cx="210.0" cy="668.6" r="7" fill="#2d2af4" opacity="0.78"/>
<circle cx="1032.3" cy="389.8" r="7" fill="#6b4cff" opacity="0.78"/>
<circle cx="1071.8" cy="310.6" r="7" fill="#090909" opacity="0.34"/>
<circle cx="1063.6" cy="305.1" r="7" fill="#6b4cff" opacity="0.34"/>
<circle cx="958.0" cy="437.0" r="7" fill="#6b4cff" opacity="0.34"/>
<circle cx="1022.3" cy="300.0" r="7" fill="#6b4cff" opacity="0.78"/>
<circle cx="1087.4" cy="304.7" r="7" fill="#090909" opacity="0.34"/>
<circle cx="1088.7" cy="300.0" r="7" fill="#090909" opacity="0.34"/>
<circle cx="268.0" cy="307.5" r="7" fill="#2d2af4" opacity="0.78"/>
<circle cx="1071.1" cy="324.5" r="7" fill="#090909" opacity="0.34"/>
<circle cx="1049.8" cy="325.0" r="7" fill="#6b4cff" opacity="0.34"/>
<circle cx="969.0" cy="351.4" r="7" fill="#6b4cff" opacity="0.78"/>
<circle cx="1065.2" cy="312.9" r="7" fill="#6b4cff" opacity="0.34"/>
<circle cx="210.0" cy="985.0" r="7" fill="#2d2af4" opacity="0.34"/>
<circle cx="1090.0" cy="300.0" r="7" fill="#090909" opacity="0.34"/>
<circle cx="210.0" cy="492.7" r="7" fill="#2d2af4" opacity="0.78"/>
<circle cx="1086.3" cy="302.9" r="7" fill="#090909" opacity="0.34"/>
<circle cx="1073.1" cy="352.7" r="7" fill="#090909" opacity="0.78"/>
<text x="236.0" y="270.2" font-size="21" font-family="monospace" font-weight="800" fill="#11131a" text-anchor="start" >mashumaro</text>
<text x="236.3" y="315.9" font-size="21" font-family="monospace" font-weight="800" fill="#11131a" text-anchor="start" >fastapi HEAD</text>
<text x="1070.7" y="1009.0" font-size="21" font-family="monospace" font-weight="800" fill="#11131a" text-anchor="end" >adaptix</text>
<text x="1025.7" y="878.9" font-size="21" font-family="monospace" font-weight="800" fill="#11131a" text-anchor="end" >cattrs</text>
<text x="236.0" y="362.3" font-size="21" font-family="monospace" font-weight="800" fill="#11131a" text-anchor="start" >kgateway</text>
<text x="650.0" y="1065.0" font-size="24" font-family="monospace" font-weight="800" fill="#4a4d57" text-anchor="middle" >BASELINE PARTIAL REWARD →</text>
<text x="118.0" y="650.0" font-size="24" font-family="monospace" font-weight="800" fill="#4a4d57" text-anchor="middle" transform="rotate(-90 118 650)">OM PARTIAL REWARD ↑</text>
<text x="850.0" y="1070.0" font-size="22" font-family="monospace" font-weight="800" fill="#2d2af4" text-anchor="start" >hard</text>
<text x="930.0" y="1070.0" font-size="22" font-family="monospace" font-weight="800" fill="#6b4cff" text-anchor="start" >medium</text>
<text x="1050.0" y="1070.0" font-size="22" font-family="monospace" font-weight="800" fill="#090909" text-anchor="start" >easy</text>
<line x1="105" y1="1130" x2="1149" y2="1130" stroke="#090909" stroke-width="2" opacity="0.16"/>
<text x="108.0" y="1168.0" font-size="20" font-family="monospace" font-weight="700" fill="#4a4d57" text-anchor="start" >DeepSWE · pi-observational-memory vs baseline · 113 paired tasks · thinking: high</text>
</svg>
