<svg xmlns="http://www.w3.org/2000/svg" width="1254" height="1254" viewBox="0 0 1254 1254">
<defs>
<pattern id="dots" width="9" height="9" patternUnits="userSpaceOnUse"><circle cx="1.2" cy="1.2" r="0.65" fill="#ece8dc" opacity="0.65"/></pattern>
<filter id="shadow" x="-20%" y="-20%" width="140%" height="140%"><feDropShadow dx="0" dy="18" stdDeviation="20" flood-color="#111" flood-opacity="0.18"/></filter>
<marker id="arrow" markerWidth="10" markerHeight="10" refX="8" refY="4" orient="auto"><path d="M0,0 L9,4 L0,8 Z" fill="#2d2af4"/></marker>
</defs>
<rect width="1254" height="1254" fill="#2d2af4"/>
<rect x="58" y="58" width="1138" height="1138" rx="42" fill="#fbfaf6" filter="url(#shadow)"/>
<rect x="58" y="58" width="1138" height="1138" rx="42" fill="url(#dots)" opacity="0.82"/>
<text x="105.0" y="145.0" font-size="52" font-family="Georgia,serif" font-weight="800" fill="#090909" text-anchor="start" >Memory helped hard tasks</text>
<text x="108.0" y="190.0" font-size="24" font-family="monospace" font-weight="700" fill="#4a4d57" text-anchor="start" >Mean partial reward by baseline difficulty tercile</text>
<line x1="210" y1="910.0" x2="1105" y2="910.0" stroke="#c9c9c9" stroke-width="1.3" stroke-dasharray="2 5"/>
<text x="192.0" y="918.0" font-size="24" font-family="monospace" font-weight="600" fill="#4a4d57" text-anchor="end" >0%</text>
<line x1="210" y1="788.0" x2="1105" y2="788.0" stroke="#c9c9c9" stroke-width="1.3" stroke-dasharray="2 5"/>
<text x="192.0" y="796.0" font-size="24" font-family="monospace" font-weight="600" fill="#4a4d57" text-anchor="end" >20%</text>
<line x1="210" y1="666.0" x2="1105" y2="666.0" stroke="#c9c9c9" stroke-width="1.3" stroke-dasharray="2 5"/>
<text x="192.0" y="674.0" font-size="24" font-family="monospace" font-weight="600" fill="#4a4d57" text-anchor="end" >40%</text>
<line x1="210" y1="544.0" x2="1105" y2="544.0" stroke="#c9c9c9" stroke-width="1.3" stroke-dasharray="2 5"/>
<text x="192.0" y="552.0" font-size="24" font-family="monospace" font-weight="600" fill="#4a4d57" text-anchor="end" >60%</text>
<line x1="210" y1="422.0" x2="1105" y2="422.0" stroke="#c9c9c9" stroke-width="1.3" stroke-dasharray="2 5"/>
<text x="192.0" y="430.0" font-size="24" font-family="monospace" font-weight="600" fill="#4a4d57" text-anchor="end" >80%</text>
<line x1="210" y1="300.0" x2="1105" y2="300.0" stroke="#c9c9c9" stroke-width="1.3" stroke-dasharray="2 5"/>
<text x="192.0" y="308.0" font-size="24" font-family="monospace" font-weight="600" fill="#4a4d57" text-anchor="end" >100%</text>
<line x1="210" y1="300" x2="210" y2="910" stroke="#090909" stroke-width="3"/>
<line x1="210" y1="910" x2="1105" y2="910" stroke="#090909" stroke-width="3"/>
<text x="125.0" y="610.0" font-size="23" font-family="monospace" font-weight="800" fill="#4a4d57" text-anchor="middle" transform="rotate(-90 125 610)">PARTIAL REWARD ↑</text>
<rect x="269.2" y="665.1" width="82" height="244.9" rx="9" fill="#090909" opacity="0.92"/>
<text x="310.2" y="651.1" font-size="25" font-family="monospace" font-weight="800" fill="#090909" text-anchor="middle" >40.1%</text>
<rect x="367.2" y="477.0" width="82" height="433.0" rx="9" fill="#2d2af4" opacity="0.92"/>
<text x="408.2" y="463.0" font-size="25" font-family="monospace" font-weight="800" fill="#2d2af4" text-anchor="middle" >71.0%</text>
<text x="359.2" y="960.0" font-size="36" font-family="Georgia,serif" font-weight="800" fill="#090909" text-anchor="middle" >HARD</text>
<text x="359.2" y="994.0" font-size="21" font-family="monospace" font-weight="700" fill="#4a4d57" text-anchor="middle" >n=38 · solves 0→1</text>
<text x="359.2" y="1022.0" font-size="19" font-family="monospace" font-weight="600" fill="#4a4d57" text-anchor="middle" >win/loss/tie 26/9/3</text>
<rect x="567.5" y="340.0" width="82" height="570.0" rx="9" fill="#090909" opacity="0.92"/>
<text x="608.5" y="326.0" font-size="25" font-family="monospace" font-weight="800" fill="#090909" text-anchor="middle" >93.4%</text>
<rect x="665.5" y="353.3" width="82" height="556.7" rx="9" fill="#2d2af4" opacity="0.92"/>
<text x="706.5" y="339.3" font-size="25" font-family="monospace" font-weight="800" fill="#2d2af4" text-anchor="middle" >91.3%</text>
<text x="657.5" y="960.0" font-size="36" font-family="Georgia,serif" font-weight="800" fill="#090909" text-anchor="middle" >MEDIUM</text>
<text x="657.5" y="994.0" font-size="21" font-family="monospace" font-weight="700" fill="#4a4d57" text-anchor="middle" >n=37 · solves 0→4</text>
<text x="657.5" y="1022.0" font-size="19" font-family="monospace" font-weight="600" fill="#4a4d57" text-anchor="middle" >win/loss/tie 24/10/3</text>
<rect x="865.8" y="305.6" width="82" height="604.4" rx="9" fill="#090909" opacity="0.92"/>
<text x="906.8" y="291.6" font-size="25" font-family="monospace" font-weight="800" fill="#090909" text-anchor="middle" >99.1%</text>
<rect x="963.8" y="331.7" width="82" height="578.3" rx="9" fill="#2d2af4" opacity="0.92"/>
<text x="1004.8" y="317.7" font-size="25" font-family="monospace" font-weight="800" fill="#2d2af4" text-anchor="middle" >94.8%</text>
<text x="955.8" y="960.0" font-size="36" font-family="Georgia,serif" font-weight="800" fill="#090909" text-anchor="middle" >EASY</text>
<text x="955.8" y="994.0" font-size="21" font-family="monospace" font-weight="700" fill="#4a4d57" text-anchor="middle" >n=38 · solves 2→5</text>
<text x="955.8" y="1022.0" font-size="19" font-family="monospace" font-weight="600" fill="#4a4d57" text-anchor="middle" >win/loss/tie 19/14/5</text>
<circle cx="870" cy="255" r="9" fill="#090909"/><text x="890" y="263" font-size="22" font-family="monospace" font-weight="700" fill="#11131a">baseline</text>
<circle cx="1010" cy="255" r="9" fill="#2d2af4"/><text x="1030" y="263" font-size="22" font-family="monospace" font-weight="700" fill="#11131a">OM</text>
<line x1="105" y1="1130" x2="1149" y2="1130" stroke="#090909" stroke-width="2" opacity="0.16"/>
<text x="108.0" y="1168.0" font-size="20" font-family="monospace" font-weight="700" fill="#4a4d57" text-anchor="start" >DeepSWE · pi-observational-memory vs baseline · 113 paired tasks · thinking: high</text>
</svg>
