<svg xmlns="http://www.w3.org/2000/svg" width="1254" height="1254" viewBox="0 0 1254 1254">
<defs>
<pattern id="dots" width="9" height="9" patternUnits="userSpaceOnUse"><circle cx="1.2" cy="1.2" r="0.65" fill="#ece8dc" opacity="0.65"/></pattern>
<filter id="shadow" x="-20%" y="-20%" width="140%" height="140%"><feDropShadow dx="0" dy="18" stdDeviation="20" flood-color="#111" flood-opacity="0.18"/></filter>
<marker id="arrow" markerWidth="10" markerHeight="10" refX="8" refY="4" orient="auto"><path d="M0,0 L9,4 L0,8 Z" fill="#2d2af4"/></marker>
</defs>
<rect width="1254" height="1254" fill="#2d2af4"/>
<rect x="58" y="58" width="1138" height="1138" rx="42" fill="#fbfaf6" filter="url(#shadow)"/>
<rect x="58" y="58" width="1138" height="1138" rx="42" fill="url(#dots)" opacity="0.82"/>
<text x="105.0" y="145.0" font-size="52" font-family="Georgia,serif" font-weight="800" fill="#090909" text-anchor="start" >Task-level lift</text>
<text x="108.0" y="190.0" font-size="24" font-family="monospace" font-weight="700" fill="#4a4d57" text-anchor="start" >Δpartial reward sorted by task · blue wins, red losses</text>
<line x1="150" y1="963.8" x2="1110" y2="963.8" stroke="#c9c9c9" stroke-width="1.2" stroke-dasharray="2 5"/>
<text x="138.0" y="971.8" font-size="21" font-family="monospace" font-weight="600" fill="#4a4d57" text-anchor="end" >-1.0</text>
<line x1="150" y1="801.9" x2="1110" y2="801.9" stroke="#c9c9c9" stroke-width="1.2" stroke-dasharray="2 5"/>
<text x="138.0" y="809.9" font-size="21" font-family="monospace" font-weight="600" fill="#4a4d57" text-anchor="end" >-0.5</text>
<line x1="150" y1="640.0" x2="1110" y2="640.0" stroke="#c9c9c9" stroke-width="1.2" stroke-dasharray="2 5"/>
<text x="138.0" y="648.0" font-size="21" font-family="monospace" font-weight="600" fill="#4a4d57" text-anchor="end" >+0.0</text>
<line x1="150" y1="478.1" x2="1110" y2="478.1" stroke="#c9c9c9" stroke-width="1.2" stroke-dasharray="2 5"/>
<text x="138.0" y="486.1" font-size="21" font-family="monospace" font-weight="600" fill="#4a4d57" text-anchor="end" >+0.5</text>
<line x1="150" y1="316.2" x2="1110" y2="316.2" stroke="#c9c9c9" stroke-width="1.2" stroke-dasharray="2 5"/>
<text x="138.0" y="324.2" font-size="21" font-family="monospace" font-weight="600" fill="#4a4d57" text-anchor="end" >+1.0</text>
<line x1="150" y1="640.0" x2="1110" y2="640.0" stroke="#090909" stroke-width="3" opacity="0.55"/>
<line x1="150.0" y1="640.0" x2="150.0" y2="316.3" stroke="#2d2af4" stroke-width="3" opacity="0.62"/>
<circle cx="150.0" cy="316.3" r="6" fill="#2d2af4"/>
<line x1="158.6" y1="640.0" x2="158.6" y2="317.2" stroke="#2d2af4" stroke-width="3" opacity="0.62"/>
<circle cx="158.6" cy="317.2" r="6" fill="#2d2af4"/>
<line x1="167.1" y1="640.0" x2="167.1" y2="318.6" stroke="#2d2af4" stroke-width="3" opacity="0.62"/>
<circle cx="167.1" cy="318.6" r="6" fill="#2d2af4"/>
<line x1="175.7" y1="640.0" x2="175.7" y2="318.9" stroke="#2d2af4" stroke-width="3" opacity="0.62"/>
<circle cx="175.7" cy="318.9" r="6" fill="#2d2af4"/>
<line x1="184.3" y1="640.0" x2="184.3" y2="319.2" stroke="#2d2af4" stroke-width="3" opacity="0.62"/>
<circle cx="184.3" cy="319.2" r="6" fill="#2d2af4"/>
<line x1="192.9" y1="640.0" x2="192.9" y2="325.6" stroke="#2d2af4" stroke-width="3" opacity="0.62"/>
<circle cx="192.9" cy="325.6" r="6" fill="#2d2af4"/>
<line x1="201.4" y1="640.0" x2="201.4" y2="341.1" stroke="#2d2af4" stroke-width="3" opacity="0.62"/>
<circle cx="201.4" cy="341.1" r="6" fill="#2d2af4"/>
<line x1="210.0" y1="640.0" x2="210.0" y2="344.8" stroke="#2d2af4" stroke-width="3" opacity="0.62"/>
<circle cx="210.0" cy="344.8" r="6" fill="#2d2af4"/>
<line x1="218.6" y1="640.0" x2="218.6" y2="350.3" stroke="#2d2af4" stroke-width="3" opacity="0.62"/>
<circle cx="218.6" cy="350.3" r="6" fill="#2d2af4"/>
<line x1="227.1" y1="640.0" x2="227.1" y2="393.0" stroke="#2d2af4" stroke-width="3" opacity="0.62"/>
<circle cx="227.1" cy="393.0" r="6" fill="#2d2af4"/>
<line x1="235.7" y1="640.0" x2="235.7" y2="407.3" stroke="#2d2af4" stroke-width="3" opacity="0.62"/>
<circle cx="235.7" cy="407.3" r="6" fill="#2d2af4"/>
<line x1="244.3" y1="640.0" x2="244.3" y2="456.2" stroke="#2d2af4" stroke-width="3" opacity="0.62"/>
<circle cx="244.3" cy="456.2" r="6" fill="#2d2af4"/>
<line x1="252.9" y1="640.0" x2="252.9" y2="490.4" stroke="#2d2af4" stroke-width="3" opacity="0.62"/>
<line x1="261.4" y1="640.0" x2="261.4" y2="496.1" stroke="#2d2af4" stroke-width="3" opacity="0.62"/>
<line x1="270.0" y1="640.0" x2="270.0" y2="523.7" stroke="#2d2af4" stroke-width="3" opacity="0.62"/>
<line x1="278.6" y1="640.0" x2="278.6" y2="526.7" stroke="#2d2af4" stroke-width="3" opacity="0.62"/>
<line x1="287.1" y1="640.0" x2="287.1" y2="532.8" stroke="#2d2af4" stroke-width="3" opacity="0.62"/>
<line x1="295.7" y1="640.0" x2="295.7" y2="547.5" stroke="#2d2af4" stroke-width="3" opacity="0.62"/>
<line x1="304.3" y1="640.0" x2="304.3" y2="555.5" stroke="#2d2af4" stroke-width="3" opacity="0.62"/>
<line x1="312.9" y1="640.0" x2="312.9" y2="581.6" stroke="#2d2af4" stroke-width="3" opacity="0.62"/>
<line x1="321.4" y1="640.0" x2="321.4" y2="587.3" stroke="#2d2af4" stroke-width="3" opacity="0.62"/>
<line x1="330.0" y1="640.0" x2="330.0" y2="589.8" stroke="#2d2af4" stroke-width="3" opacity="0.62"/>
<line x1="338.6" y1="640.0" x2="338.6" y2="592.2" stroke="#2d2af4" stroke-width="3" opacity="0.62"/>
<line x1="347.1" y1="640.0" x2="347.1" y2="593.7" stroke="#2d2af4" stroke-width="3" opacity="0.62"/>
<line x1="355.7" y1="640.0" x2="355.7" y2="596.8" stroke="#2d2af4" stroke-width="3" opacity="0.62"/>
<line x1="364.3" y1="640.0" x2="364.3" y2="611.6" stroke="#2d2af4" stroke-width="3" opacity="0.62"/>
<line x1="372.9" y1="640.0" x2="372.9" y2="614.2" stroke="#2d2af4" stroke-width="3" opacity="0.62"/>
<line x1="381.4" y1="640.0" x2="381.4" y2="615.1" stroke="#2d2af4" stroke-width="3" opacity="0.62"/>
<line x1="390.0" y1="640.0" x2="390.0" y2="618.3" stroke="#2d2af4" stroke-width="3" opacity="0.62"/>
<line x1="398.6" y1="640.0" x2="398.6" y2="618.9" stroke="#2d2af4" stroke-width="3" opacity="0.62"/>
<line x1="407.1" y1="640.0" x2="407.1" y2="619.8" stroke="#2d2af4" stroke-width="3" opacity="0.62"/>
<line x1="415.7" y1="640.0" x2="415.7" y2="622.2" stroke="#2d2af4" stroke-width="3" opacity="0.62"/>
<line x1="424.3" y1="640.0" x2="424.3" y2="625.0" stroke="#2d2af4" stroke-width="3" opacity="0.62"/>
<line x1="432.9" y1="640.0" x2="432.9" y2="626.8" stroke="#2d2af4" stroke-width="3" opacity="0.62"/>
<line x1="441.4" y1="640.0" x2="441.4" y2="629.3" stroke="#2d2af4" stroke-width="3" opacity="0.62"/>
<line x1="450.0" y1="640.0" x2="450.0" y2="631.2" stroke="#2d2af4" stroke-width="3" opacity="0.62"/>
<line x1="458.6" y1="640.0" x2="458.6" y2="631.7" stroke="#2d2af4" stroke-width="3" opacity="0.62"/>
<line x1="467.1" y1="640.0" x2="467.1" y2="632.0" stroke="#2d2af4" stroke-width="3" opacity="0.62"/>
<line x1="475.7" y1="640.0" x2="475.7" y2="632.7" stroke="#2d2af4" stroke-width="3" opacity="0.62"/>
<line x1="484.3" y1="640.0" x2="484.3" y2="633.3" stroke="#2d2af4" stroke-width="3" opacity="0.62"/>
<line x1="492.9" y1="640.0" x2="492.9" y2="634.7" stroke="#2d2af4" stroke-width="3" opacity="0.62"/>
<line x1="501.4" y1="640.0" x2="501.4" y2="635.1" stroke="#2d2af4" stroke-width="3" opacity="0.62"/>
<line x1="510.0" y1="640.0" x2="510.0" y2="635.3" stroke="#2d2af4" stroke-width="3" opacity="0.62"/>
<line x1="518.6" y1="640.0" x2="518.6" y2="635.4" stroke="#2d2af4" stroke-width="3" opacity="0.62"/>
<line x1="527.1" y1="640.0" x2="527.1" y2="635.5" stroke="#2d2af4" stroke-width="3" opacity="0.62"/>
<line x1="535.7" y1="640.0" x2="535.7" y2="635.9" stroke="#2d2af4" stroke-width="3" opacity="0.62"/>
<line x1="544.3" y1="640.0" x2="544.3" y2="636.5" stroke="#2d2af4" stroke-width="3" opacity="0.62"/>
<line x1="552.9" y1="640.0" x2="552.9" y2="636.7" stroke="#2d2af4" stroke-width="3" opacity="0.62"/>
<line x1="561.4" y1="640.0" x2="561.4" y2="636.9" stroke="#2d2af4" stroke-width="3" opacity="0.62"/>
<line x1="570.0" y1="640.0" x2="570.0" y2="637.0" stroke="#2d2af4" stroke-width="3" opacity="0.62"/>
<line x1="578.6" y1="640.0" x2="578.6" y2="637.0" stroke="#2d2af4" stroke-width="3" opacity="0.62"/>
<line x1="587.1" y1="640.0" x2="587.1" y2="637.2" stroke="#2d2af4" stroke-width="3" opacity="0.62"/>
<line x1="595.7" y1="640.0" x2="595.7" y2="637.4" stroke="#2d2af4" stroke-width="3" opacity="0.62"/>
<line x1="604.3" y1="640.0" x2="604.3" y2="638.1" stroke="#2d2af4" stroke-width="3" opacity="0.62"/>
<line x1="612.9" y1="640.0" x2="612.9" y2="638.3" stroke="#2d2af4" stroke-width="3" opacity="0.62"/>
<line x1="621.4" y1="640.0" x2="621.4" y2="638.6" stroke="#2d2af4" stroke-width="3" opacity="0.62"/>
<line x1="630.0" y1="640.0" x2="630.0" y2="638.9" stroke="#2d2af4" stroke-width="3" opacity="0.62"/>
<line x1="638.6" y1="640.0" x2="638.6" y2="639.0" stroke="#2d2af4" stroke-width="3" opacity="0.62"/>
<line x1="647.1" y1="640.0" x2="647.1" y2="639.1" stroke="#2d2af4" stroke-width="3" opacity="0.62"/>
<line x1="655.7" y1="640.0" x2="655.7" y2="639.1" stroke="#2d2af4" stroke-width="3" opacity="0.62"/>
<line x1="664.3" y1="640.0" x2="664.3" y2="639.3" stroke="#2d2af4" stroke-width="3" opacity="0.62"/>
<line x1="672.9" y1="640.0" x2="672.9" y2="639.4" stroke="#2d2af4" stroke-width="3" opacity="0.62"/>
<line x1="681.4" y1="640.0" x2="681.4" y2="639.5" stroke="#2d2af4" stroke-width="3" opacity="0.62"/>
<line x1="690.0" y1="640.0" x2="690.0" y2="639.6" stroke="#2d2af4" stroke-width="3" opacity="0.62"/>
<line x1="698.6" y1="640.0" x2="698.6" y2="639.6" stroke="#2d2af4" stroke-width="3" opacity="0.62"/>
<line x1="707.1" y1="640.0" x2="707.1" y2="639.7" stroke="#2d2af4" stroke-width="3" opacity="0.62"/>
<line x1="715.7" y1="640.0" x2="715.7" y2="639.7" stroke="#2d2af4" stroke-width="3" opacity="0.62"/>
<line x1="724.3" y1="640.0" x2="724.3" y2="639.7" stroke="#2d2af4" stroke-width="3" opacity="0.62"/>
<line x1="732.9" y1="640.0" x2="732.9" y2="639.9" stroke="#2d2af4" stroke-width="3" opacity="0.62"/>
<line x1="741.4" y1="640.0" x2="741.4" y2="640.0" stroke="#888b94" stroke-width="3" opacity="0.62"/>
<line x1="750.0" y1="640.0" x2="750.0" y2="640.0" stroke="#888b94" stroke-width="3" opacity="0.62"/>
<line x1="758.6" y1="640.0" x2="758.6" y2="640.0" stroke="#888b94" stroke-width="3" opacity="0.62"/>
<line x1="767.1" y1="640.0" x2="767.1" y2="640.0" stroke="#888b94" stroke-width="3" opacity="0.62"/>
<line x1="775.7" y1="640.0" x2="775.7" y2="640.0" stroke="#888b94" stroke-width="3" opacity="0.62"/>
<line x1="784.3" y1="640.0" x2="784.3" y2="640.0" stroke="#888b94" stroke-width="3" opacity="0.62"/>
<line x1="792.9" y1="640.0" x2="792.9" y2="640.0" stroke="#888b94" stroke-width="3" opacity="0.62"/>
<line x1="801.4" y1="640.0" x2="801.4" y2="640.0" stroke="#888b94" stroke-width="3" opacity="0.62"/>
<line x1="810.0" y1="640.0" x2="810.0" y2="640.0" stroke="#888b94" stroke-width="3" opacity="0.62"/>
<line x1="818.6" y1="640.0" x2="818.6" y2="640.0" stroke="#888b94" stroke-width="3" opacity="0.62"/>
<line x1="827.1" y1="640.0" x2="827.1" y2="640.0" stroke="#888b94" stroke-width="3" opacity="0.62"/>
<line x1="835.7" y1="640.0" x2="835.7" y2="640.0" stroke="#d3412f" stroke-width="3" opacity="0.62"/>
<line x1="844.3" y1="640.0" x2="844.3" y2="640.5" stroke="#d3412f" stroke-width="3" opacity="0.62"/>
<line x1="852.9" y1="640.0" x2="852.9" y2="641.3" stroke="#d3412f" stroke-width="3" opacity="0.62"/>
<line x1="861.4" y1="640.0" x2="861.4" y2="641.3" stroke="#d3412f" stroke-width="3" opacity="0.62"/>
<line x1="870.0" y1="640.0" x2="870.0" y2="641.3" stroke="#d3412f" stroke-width="3" opacity="0.62"/>
<line x1="878.6" y1="640.0" x2="878.6" y2="643.0" stroke="#d3412f" stroke-width="3" opacity="0.62"/>
<line x1="887.1" y1="640.0" x2="887.1" y2="643.5" stroke="#d3412f" stroke-width="3" opacity="0.62"/>
<line x1="895.7" y1="640.0" x2="895.7" y2="644.6" stroke="#d3412f" stroke-width="3" opacity="0.62"/>
<line x1="904.3" y1="640.0" x2="904.3" y2="644.9" stroke="#d3412f" stroke-width="3" opacity="0.62"/>
<line x1="912.9" y1="640.0" x2="912.9" y2="645.4" stroke="#d3412f" stroke-width="3" opacity="0.62"/>
<line x1="921.4" y1="640.0" x2="921.4" y2="647.1" stroke="#d3412f" stroke-width="3" opacity="0.62"/>
<line x1="930.0" y1="640.0" x2="930.0" y2="650.6" stroke="#d3412f" stroke-width="3" opacity="0.62"/>
<line x1="938.6" y1="640.0" x2="938.6" y2="653.0" stroke="#d3412f" stroke-width="3" opacity="0.62"/>
<line x1="947.1" y1="640.0" x2="947.1" y2="654.0" stroke="#d3412f" stroke-width="3" opacity="0.62"/>
<line x1="955.7" y1="640.0" x2="955.7" y2="656.2" stroke="#d3412f" stroke-width="3" opacity="0.62"/>
<line x1="964.3" y1="640.0" x2="964.3" y2="658.5" stroke="#d3412f" stroke-width="3" opacity="0.62"/>
<line x1="972.9" y1="640.0" x2="972.9" y2="658.7" stroke="#d3412f" stroke-width="3" opacity="0.62"/>
<line x1="981.4" y1="640.0" x2="981.4" y2="661.2" stroke="#d3412f" stroke-width="3" opacity="0.62"/>
<line x1="990.0" y1="640.0" x2="990.0" y2="668.2" stroke="#d3412f" stroke-width="3" opacity="0.62"/>
<line x1="998.6" y1="640.0" x2="998.6" y2="676.1" stroke="#d3412f" stroke-width="3" opacity="0.62"/>
<line x1="1007.1" y1="640.0" x2="1007.1" y2="683.8" stroke="#d3412f" stroke-width="3" opacity="0.62"/>
<line x1="1015.7" y1="640.0" x2="1015.7" y2="688.5" stroke="#d3412f" stroke-width="3" opacity="0.62"/>
<line x1="1024.3" y1="640.0" x2="1024.3" y2="695.2" stroke="#d3412f" stroke-width="3" opacity="0.62"/>
<line x1="1032.9" y1="640.0" x2="1032.9" y2="701.7" stroke="#d3412f" stroke-width="3" opacity="0.62"/>
<line x1="1041.4" y1="640.0" x2="1041.4" y2="708.2" stroke="#d3412f" stroke-width="3" opacity="0.62"/>
<line x1="1050.0" y1="640.0" x2="1050.0" y2="721.0" stroke="#d3412f" stroke-width="3" opacity="0.62"/>
<line x1="1058.6" y1="640.0" x2="1058.6" y2="735.4" stroke="#d3412f" stroke-width="3" opacity="0.62"/>
<line x1="1067.1" y1="640.0" x2="1067.1" y2="736.3" stroke="#d3412f" stroke-width="3" opacity="0.62"/>
<line x1="1075.7" y1="640.0" x2="1075.7" y2="801.9" stroke="#d3412f" stroke-width="3" opacity="0.62"/>
<line x1="1084.3" y1="640.0" x2="1084.3" y2="814.0" stroke="#d3412f" stroke-width="3" opacity="0.62"/>
<circle cx="1084.3" cy="814.0" r="6" fill="#d3412f"/>
<line x1="1092.9" y1="640.0" x2="1092.9" y2="828.0" stroke="#d3412f" stroke-width="3" opacity="0.62"/>
<circle cx="1092.9" cy="828.0" r="6" fill="#d3412f"/>
<line x1="1101.4" y1="640.0" x2="1101.4" y2="904.2" stroke="#d3412f" stroke-width="3" opacity="0.62"/>
<circle cx="1101.4" cy="904.2" r="6" fill="#d3412f"/>
<line x1="1110.0" y1="640.0" x2="1110.0" y2="963.3" stroke="#d3412f" stroke-width="3" opacity="0.62"/>
<circle cx="1110.0" cy="963.3" r="6" fill="#d3412f"/>
<text x="160.0" y="302.3" font-size="21" font-family="monospace" font-weight="800" fill="#11131a" text-anchor="start" >mashumaro</text>
<text x="168.6" y="341.2" font-size="21" font-family="monospace" font-weight="800" fill="#11131a" text-anchor="start" >fastapi</text>
<text x="1100.0" y="987.3" font-size="21" font-family="monospace" font-weight="800" fill="#11131a" text-anchor="end" >adaptix</text>
<text x="1091.4" y="890.2" font-size="21" font-family="monospace" font-weight="800" fill="#11131a" text-anchor="end" >cattrs</text>
<text x="630.0" y="1040.0" font-size="30" font-family="Georgia,serif" font-weight="800" fill="#090909" text-anchor="middle" >69 improved · 33 worse · 11 tied</text>
<text x="630.0" y="1078.0" font-size="21" font-family="monospace" font-weight="700" fill="#4a4d57" text-anchor="middle" >sorted from biggest OM gain to biggest OM loss</text>
<line x1="105" y1="1130" x2="1149" y2="1130" stroke="#090909" stroke-width="2" opacity="0.16"/>
<text x="108.0" y="1168.0" font-size="20" font-family="monospace" font-weight="700" fill="#4a4d57" text-anchor="start" >DeepSWE · pi-observational-memory vs baseline · 113 paired tasks · thinking: high</text>
</svg>
