<svg xmlns="http://www.w3.org/2000/svg" width="1254" height="1254" viewBox="0 0 1254 1254">
<defs>
<pattern id="dots" width="9" height="9" patternUnits="userSpaceOnUse"><circle cx="1.2" cy="1.2" r="0.65" fill="#ece8dc" opacity="0.65"/></pattern>
<filter id="shadow" x="-20%" y="-20%" width="140%" height="140%"><feDropShadow dx="0" dy="18" stdDeviation="20" flood-color="#111" flood-opacity="0.18"/></filter>
<marker id="arrow" markerWidth="10" markerHeight="10" refX="8" refY="4" orient="auto"><path d="M0,0 L9,4 L0,8 Z" fill="#2d2af4"/></marker>
</defs>
<rect width="1254" height="1254" fill="#2d2af4"/>
<rect x="58" y="58" width="1138" height="1138" rx="42" fill="#fbfaf6" filter="url(#shadow)"/>
<rect x="58" y="58" width="1138" height="1138" rx="42" fill="url(#dots)" opacity="0.82"/>
<text x="105.0" y="145.0" font-size="52" font-family="Georgia,serif" font-weight="800" fill="#090909" text-anchor="start" >Quality vs search cost</text>
<text x="108.0" y="190.0" font-size="24" font-family="monospace" font-weight="700" fill="#4a4d57" text-anchor="start" >Δpartial reward vs Δtokens · right side used more main-session tokens</text>
<line x1="234.8" y1="300" x2="234.8" y2="960" stroke="#c9c9c9" stroke-width="1.2" stroke-dasharray="2 5"/>
<text x="234.8" y="995.0" font-size="21" font-family="monospace" font-weight="600" fill="#4a4d57" text-anchor="middle" >-20M</text>
<line x1="384.0" y1="300" x2="384.0" y2="960" stroke="#c9c9c9" stroke-width="1.2" stroke-dasharray="2 5"/>
<text x="384.0" y="995.0" font-size="21" font-family="monospace" font-weight="600" fill="#4a4d57" text-anchor="middle" >-10M</text>
<line x1="533.2" y1="300" x2="533.2" y2="960" stroke="#c9c9c9" stroke-width="1.2" stroke-dasharray="2 5"/>
<text x="533.2" y="995.0" font-size="21" font-family="monospace" font-weight="600" fill="#4a4d57" text-anchor="middle" >0M</text>
<line x1="682.3" y1="300" x2="682.3" y2="960" stroke="#c9c9c9" stroke-width="1.2" stroke-dasharray="2 5"/>
<text x="682.3" y="995.0" font-size="21" font-family="monospace" font-weight="600" fill="#4a4d57" text-anchor="middle" >10M</text>
<line x1="831.5" y1="300" x2="831.5" y2="960" stroke="#c9c9c9" stroke-width="1.2" stroke-dasharray="2 5"/>
<text x="831.5" y="995.0" font-size="21" font-family="monospace" font-weight="600" fill="#4a4d57" text-anchor="middle" >20M</text>
<line x1="980.7" y1="300" x2="980.7" y2="960" stroke="#c9c9c9" stroke-width="1.2" stroke-dasharray="2 5"/>
<text x="980.7" y="995.0" font-size="21" font-family="monospace" font-weight="600" fill="#4a4d57" text-anchor="middle" >30M</text>
<line x1="205" y1="944.3" x2="1100" y2="944.3" stroke="#c9c9c9" stroke-width="1.2" stroke-dasharray="2 5"/>
<text x="191.0" y="952.3" font-size="21" font-family="monospace" font-weight="600" fill="#4a4d57" text-anchor="end" >-1.0</text>
<line x1="205" y1="787.1" x2="1100" y2="787.1" stroke="#c9c9c9" stroke-width="1.2" stroke-dasharray="2 5"/>
<text x="191.0" y="795.1" font-size="21" font-family="monospace" font-weight="600" fill="#4a4d57" text-anchor="end" >-0.5</text>
<line x1="205" y1="630.0" x2="1100" y2="630.0" stroke="#c9c9c9" stroke-width="1.2" stroke-dasharray="2 5"/>
<text x="191.0" y="638.0" font-size="21" font-family="monospace" font-weight="600" fill="#4a4d57" text-anchor="end" >+0.0</text>
<line x1="205" y1="472.9" x2="1100" y2="472.9" stroke="#c9c9c9" stroke-width="1.2" stroke-dasharray="2 5"/>
<text x="191.0" y="480.9" font-size="21" font-family="monospace" font-weight="600" fill="#4a4d57" text-anchor="end" >+0.5</text>
<line x1="205" y1="315.7" x2="1100" y2="315.7" stroke="#c9c9c9" stroke-width="1.2" stroke-dasharray="2 5"/>
<text x="191.0" y="323.7" font-size="21" font-family="monospace" font-weight="600" fill="#4a4d57" text-anchor="end" >+1.0</text>
<line x1="533.2" y1="300" x2="533.2" y2="960" stroke="#090909" stroke-width="3" opacity="0.45"/>
<line x1="205" y1="630.0" x2="1100" y2="630.0" stroke="#090909" stroke-width="3" opacity="0.45"/>
<circle cx="633.3" cy="548.0" r="7" fill="#0b8f5a" opacity="0.72"/>
<circle cx="450.8" cy="708.6" r="7" fill="#d3412f" opacity="0.72"/>
<circle cx="480.0" cy="630.0" r="7" fill="#888b94" opacity="0.72"/>
<circle cx="237.0" cy="943.8" r="7" fill="#d3412f" opacity="0.72"/>
<circle cx="538.7" cy="640.3" r="7" fill="#888b94" opacity="0.72"/>
<circle cx="607.1" cy="318.3" r="7" fill="#0b8f5a" opacity="0.72"/>
<circle cx="540.5" cy="626.9" r="7" fill="#888b94" opacity="0.72"/>
<circle cx="579.0" cy="585.1" r="7" fill="#0b8f5a" opacity="0.72"/>
<circle cx="568.9" cy="629.6" r="7" fill="#888b94" opacity="0.72"/>
<circle cx="544.7" cy="633.4" r="7" fill="#888b94" opacity="0.72"/>
<circle cx="545.2" cy="636.9" r="7" fill="#888b94" opacity="0.72"/>
<circle cx="544.0" cy="665.0" r="7" fill="#d3412f" opacity="0.72"/>
<circle cx="575.2" cy="629.1" r="7" fill="#888b94" opacity="0.72"/>
<circle cx="782.6" cy="630.0" r="7" fill="#888b94" opacity="0.72"/>
<circle cx="496.5" cy="886.4" r="7" fill="#d3412f" opacity="0.72"/>
<circle cx="608.3" cy="625.2" r="7" fill="#888b94" opacity="0.72"/>
<circle cx="575.4" cy="630.0" r="7" fill="#888b94" opacity="0.72"/>
<circle cx="567.6" cy="629.4" r="7" fill="#888b94" opacity="0.72"/>
<circle cx="509.2" cy="629.9" r="7" fill="#888b94" opacity="0.72"/>
<circle cx="535.2" cy="722.5" r="7" fill="#d3412f" opacity="0.72"/>
<circle cx="633.1" cy="629.4" r="7" fill="#888b94" opacity="0.72"/>
<circle cx="442.2" cy="643.5" r="7" fill="#888b94" opacity="0.72"/>
<circle cx="559.9" cy="629.0" r="7" fill="#888b94" opacity="0.72"/>
<circle cx="519.9" cy="630.5" r="7" fill="#888b94" opacity="0.72"/>
<circle cx="770.2" cy="630.0" r="7" fill="#888b94" opacity="0.72"/>
<circle cx="583.2" cy="612.7" r="7" fill="#0b8f5a" opacity="0.72"/>
<circle cx="562.0" cy="798.9" r="7" fill="#d3412f" opacity="0.72"/>
<circle cx="582.4" cy="630.0" r="7" fill="#888b94" opacity="0.72"/>
<circle cx="549.6" cy="625.7" r="7" fill="#888b94" opacity="0.72"/>
<circle cx="840.2" cy="316.7" r="7" fill="#0b8f5a" opacity="0.72"/>
<circle cx="515.1" cy="619.7" r="7" fill="#888b94" opacity="0.72"/>
<circle cx="536.8" cy="630.0" r="7" fill="#888b94" opacity="0.72"/>
<circle cx="567.0" cy="348.8" r="7" fill="#0b8f5a" opacity="0.72"/>
<circle cx="644.8" cy="630.0" r="7" fill="#888b94" opacity="0.72"/>
<circle cx="561.5" cy="696.2" r="7" fill="#d3412f" opacity="0.72"/>
<circle cx="577.6" cy="581.2" r="7" fill="#0b8f5a" opacity="0.72"/>
<circle cx="600.0" cy="629.6" r="7" fill="#888b94" opacity="0.72"/>
<circle cx="606.5" cy="608.9" r="7" fill="#0b8f5a" opacity="0.72"/>
<circle cx="541.7" cy="657.3" r="7" fill="#d3412f" opacity="0.72"/>
<circle cx="614.2" cy="390.3" r="7" fill="#0b8f5a" opacity="0.72"/>
<circle cx="702.6" cy="540.2" r="7" fill="#0b8f5a" opacity="0.72"/>
<circle cx="536.1" cy="627.3" r="7" fill="#888b94" opacity="0.72"/>
<circle cx="552.2" cy="617.1" r="7" fill="#888b94" opacity="0.72"/>
<circle cx="534.1" cy="625.4" r="7" fill="#888b94" opacity="0.72"/>
<circle cx="620.6" cy="787.1" r="7" fill="#d3412f" opacity="0.72"/>
<circle cx="560.2" cy="672.5" r="7" fill="#d3412f" opacity="0.72"/>
<circle cx="528.5" cy="609.5" r="7" fill="#0b8f5a" opacity="0.72"/>
<circle cx="647.9" cy="629.1" r="7" fill="#888b94" opacity="0.72"/>
<circle cx="553.9" cy="689.9" r="7" fill="#d3412f" opacity="0.72"/>
<circle cx="654.1" cy="615.4" r="7" fill="#888b94" opacity="0.72"/>
<circle cx="646.5" cy="318.6" r="7" fill="#0b8f5a" opacity="0.72"/>
<circle cx="689.9" cy="318.0" r="7" fill="#0b8f5a" opacity="0.72"/>
<circle cx="514.4" cy="633.0" r="7" fill="#888b94" opacity="0.72"/>
<circle cx="585.1" cy="520.1" r="7" fill="#0b8f5a" opacity="0.72"/>
<circle cx="618.6" cy="642.6" r="7" fill="#888b94" opacity="0.72"/>
<circle cx="560.3" cy="634.8" r="7" fill="#888b94" opacity="0.72"/>
<circle cx="1062.8" cy="583.6" r="7" fill="#0b8f5a" opacity="0.72"/>
<circle cx="795.4" cy="578.8" r="7" fill="#0b8f5a" opacity="0.72"/>
<circle cx="664.7" cy="604.9" r="7" fill="#0b8f5a" opacity="0.72"/>
<circle cx="560.1" cy="625.5" r="7" fill="#888b94" opacity="0.72"/>
<circle cx="649.4" cy="315.8" r="7" fill="#0b8f5a" opacity="0.72"/>
<circle cx="676.3" cy="628.9" r="7" fill="#888b94" opacity="0.72"/>
<circle cx="557.8" cy="627.5" r="7" fill="#888b94" opacity="0.72"/>
<circle cx="533.2" cy="622.2" r="7" fill="#888b94" opacity="0.72"/>
<circle cx="559.4" cy="629.8" r="7" fill="#888b94" opacity="0.72"/>
<circle cx="578.9" cy="624.9" r="7" fill="#888b94" opacity="0.72"/>
<circle cx="560.3" cy="526.0" r="7" fill="#0b8f5a" opacity="0.72"/>
<circle cx="531.2" cy="629.7" r="7" fill="#888b94" opacity="0.72"/>
<circle cx="522.9" cy="630.0" r="7" fill="#888b94" opacity="0.72"/>
<circle cx="597.9" cy="635.2" r="7" fill="#888b94" opacity="0.72"/>
<circle cx="553.0" cy="683.6" r="7" fill="#d3412f" opacity="0.72"/>
<circle cx="484.5" cy="812.5" r="7" fill="#d3412f" opacity="0.72"/>
<circle cx="685.3" cy="490.3" r="7" fill="#0b8f5a" opacity="0.72"/>
<circle cx="599.8" cy="677.1" r="7" fill="#d3412f" opacity="0.72"/>
<circle cx="704.0" cy="343.4" r="7" fill="#0b8f5a" opacity="0.72"/>
<circle cx="544.2" cy="631.3" r="7" fill="#888b94" opacity="0.72"/>
<circle cx="471.7" cy="517.1" r="7" fill="#0b8f5a" opacity="0.72"/>
<circle cx="471.5" cy="602.5" r="7" fill="#0b8f5a" opacity="0.72"/>
<circle cx="573.7" cy="626.8" r="7" fill="#888b94" opacity="0.72"/>
<circle cx="474.3" cy="588.1" r="7" fill="#0b8f5a" opacity="0.72"/>
<circle cx="544.0" cy="628.2" r="7" fill="#888b94" opacity="0.72"/>
<circle cx="548.4" cy="451.6" r="7" fill="#0b8f5a" opacity="0.72"/>
<circle cx="689.3" cy="628.6" r="7" fill="#888b94" opacity="0.72"/>
<circle cx="571.0" cy="630.0" r="7" fill="#888b94" opacity="0.72"/>
<circle cx="561.9" cy="648.0" r="7" fill="#d3412f" opacity="0.72"/>
<circle cx="526.4" cy="621.4" r="7" fill="#888b94" opacity="0.72"/>
<circle cx="654.7" cy="626.0" r="7" fill="#888b94" opacity="0.72"/>
<circle cx="620.7" cy="573.3" r="7" fill="#0b8f5a" opacity="0.72"/>
<circle cx="558.1" cy="631.3" r="7" fill="#888b94" opacity="0.72"/>
<circle cx="624.9" cy="629.7" r="7" fill="#888b94" opacity="0.72"/>
<circle cx="706.2" cy="626.6" r="7" fill="#888b94" opacity="0.72"/>
<circle cx="582.8" cy="324.9" r="7" fill="#0b8f5a" opacity="0.72"/>
<circle cx="560.5" cy="622.0" r="7" fill="#888b94" opacity="0.72"/>
<circle cx="581.1" cy="723.4" r="7" fill="#d3412f" opacity="0.72"/>
<circle cx="651.6" cy="623.5" r="7" fill="#888b94" opacity="0.72"/>
<circle cx="597.5" cy="484.8" r="7" fill="#0b8f5a" opacity="0.72"/>
<circle cx="541.2" cy="650.6" r="7" fill="#d3412f" opacity="0.72"/>
<circle cx="556.2" cy="628.4" r="7" fill="#888b94" opacity="0.72"/>
<circle cx="553.0" cy="622.9" r="7" fill="#888b94" opacity="0.72"/>
<circle cx="530.6" cy="645.7" r="7" fill="#888b94" opacity="0.72"/>
<circle cx="517.8" cy="605.8" r="7" fill="#0b8f5a" opacity="0.72"/>
<circle cx="581.6" cy="631.2" r="7" fill="#888b94" opacity="0.72"/>
<circle cx="420.1" cy="629.5" r="7" fill="#888b94" opacity="0.72"/>
<circle cx="519.8" cy="339.9" r="7" fill="#0b8f5a" opacity="0.72"/>
<circle cx="515.7" cy="634.5" r="7" fill="#888b94" opacity="0.72"/>
<circle cx="547.9" cy="627.1" r="7" fill="#888b94" opacity="0.72"/>
<circle cx="544.2" cy="610.4" r="7" fill="#0b8f5a" opacity="0.72"/>
<circle cx="531.2" cy="627.0" r="7" fill="#888b94" opacity="0.72"/>
<circle cx="592.4" cy="630.0" r="7" fill="#888b94" opacity="0.72"/>
<circle cx="572.5" cy="630.0" r="7" fill="#888b94" opacity="0.72"/>
<circle cx="795.8" cy="404.1" r="7" fill="#0b8f5a" opacity="0.72"/>
<circle cx="497.1" cy="630.0" r="7" fill="#888b94" opacity="0.72"/>
<circle cx="534.7" cy="648.1" r="7" fill="#d3412f" opacity="0.72"/>
<text x="854.2" y="304.7" font-size="21" font-family="monospace" font-weight="800" fill="#11131a" text-anchor="start" >fastapi</text>
<text x="1052.8" y="565.6" font-size="21" font-family="monospace" font-weight="800" fill="#11131a" text-anchor="end" >koota pair</text>
<text x="247.0" y="965.8" font-size="21" font-family="monospace" font-weight="800" fill="#11131a" text-anchor="start" >adaptix</text>
<text x="531.8" y="323.9" font-size="21" font-family="monospace" font-weight="800" fill="#11131a" text-anchor="start" >ts-pattern</text>
<text x="459.7" y="501.1" font-size="21" font-family="monospace" font-weight="800" fill="#11131a" text-anchor="end" >pebble</text>
<text x="652.5" y="1038.0" font-size="23" font-family="monospace" font-weight="800" fill="#4a4d57" text-anchor="middle" >Δ TOKENS (M) → MORE MAIN-SESSION TOKENS</text>
<text x="115.0" y="650.0" font-size="23" font-family="monospace" font-weight="800" fill="#4a4d57" text-anchor="middle" transform="rotate(-90 115 650)">Δ PARTIAL REWARD ↑</text>
<line x1="105" y1="1130" x2="1149" y2="1130" stroke="#090909" stroke-width="2" opacity="0.16"/>
<text x="108.0" y="1168.0" font-size="20" font-family="monospace" font-weight="700" fill="#4a4d57" text-anchor="start" >DeepSWE · pi-observational-memory vs baseline · 113 paired tasks · thinking: high</text>
</svg>
