<svg xmlns="http://www.w3.org/2000/svg" width="1672" height="941" viewBox="0 0 1672 941">
<rect width="1672" height="941" fill="#ffffff"/>
<text x="70.0" y="95.0" font-size="46" font-family="Georgia,serif" font-weight="800" fill="#090909" text-anchor="start" >pi-observational-memory on DeepSWE</text>
<text x="72.0" y="138.0" font-size="23" font-family="monospace" font-weight="700" fill="#4a4d57" text-anchor="start" >DeepSeek V4 Flash · Pi agent · 113 paired tasks · baseline reused</text>
<text x="90.0" y="190.0" font-size="22" font-family="monospace" font-weight="800" fill="#4a4d57" text-anchor="start" >metric</text>
<text x="470.0" y="190.0" font-size="22" font-family="monospace" font-weight="800" fill="#4a4d57" text-anchor="start" >baseline</text>
<text x="650.0" y="190.0" font-size="22" font-family="monospace" font-weight="800" fill="#4a4d57" text-anchor="start" >OM</text>
<text x="865.0" y="190.0" font-size="22" font-family="monospace" font-weight="800" fill="#4a4d57" text-anchor="start" >relative bar (baseline = 100%; capped)</text>
<rect x="60" y="197" width="1548" height="94" rx="18" fill="#f7f7f7"/>
<text x="90.0" y="237.0" font-size="26" font-family="monospace" font-weight="800" fill="#090909" text-anchor="start" >partial reward ↑</text>
<text x="470.0" y="237.0" font-size="25" font-family="monospace" font-weight="700" fill="#090909" text-anchor="start" >0.774</text>
<text x="650.0" y="237.0" font-size="25" font-family="monospace" font-weight="800" fill="#2d2af4" text-anchor="start" >0.856</text>
<rect x="865" y="213" width="245" height="26" rx="8" fill="#d8d8d8"/>
<rect x="865" y="249" width="271.0" height="26" rx="8" fill="#2d2af4"/>
<text x="1485.0" y="253.0" font-size="27" font-family="monospace" font-weight="900" fill="#0b8f5a" text-anchor="end" >+10.6%</text>
<rect x="60" y="315" width="1548" height="94" rx="18" fill="#f7f7f7"/>
<text x="90.0" y="355.0" font-size="26" font-family="monospace" font-weight="800" fill="#090909" text-anchor="start" >full solves ↑</text>
<text x="470.0" y="355.0" font-size="25" font-family="monospace" font-weight="700" fill="#090909" text-anchor="start" >2/113</text>
<text x="650.0" y="355.0" font-size="25" font-family="monospace" font-weight="800" fill="#2d2af4" text-anchor="start" >10/113</text>
<rect x="865" y="331" width="245" height="26" rx="8" fill="#d8d8d8"/>
<rect x="865" y="367" width="520.0" height="26" rx="8" fill="#2d2af4"/>
<text x="1399.0" y="389.0" font-size="30" font-family="monospace" font-weight="900" fill="#2d2af4" text-anchor="start" >›</text>
<text x="1485.0" y="371.0" font-size="27" font-family="monospace" font-weight="900" fill="#0b8f5a" text-anchor="end" >+400.0%</text>
<rect x="60" y="433" width="1548" height="94" rx="18" fill="#f7f7f7"/>
<text x="90.0" y="473.0" font-size="26" font-family="monospace" font-weight="800" fill="#090909" text-anchor="start" >median tokens ↓</text>
<text x="470.0" y="473.0" font-size="25" font-family="monospace" font-weight="700" fill="#090909" text-anchor="start" >3.29M</text>
<text x="650.0" y="473.0" font-size="25" font-family="monospace" font-weight="800" fill="#2d2af4" text-anchor="start" >5.45M</text>
<rect x="865" y="449" width="245" height="26" rx="8" fill="#d8d8d8"/>
<rect x="865" y="485" width="406.1" height="26" rx="8" fill="#2d2af4"/>
<text x="1485.0" y="489.0" font-size="27" font-family="monospace" font-weight="900" fill="#d3412f" text-anchor="end" >+65.7%</text>
<rect x="60" y="551" width="1548" height="94" rx="18" fill="#f7f7f7"/>
<text x="90.0" y="591.0" font-size="26" font-family="monospace" font-weight="800" fill="#090909" text-anchor="start" >median cost ↓</text>
<text x="470.0" y="591.0" font-size="25" font-family="monospace" font-weight="700" fill="#090909" text-anchor="start" >$0.150</text>
<text x="650.0" y="591.0" font-size="25" font-family="monospace" font-weight="800" fill="#2d2af4" text-anchor="start" >$0.203</text>
<rect x="865" y="567" width="245" height="26" rx="8" fill="#d8d8d8"/>
<rect x="865" y="603" width="332.1" height="26" rx="8" fill="#2d2af4"/>
<text x="1485.0" y="607.0" font-size="27" font-family="monospace" font-weight="900" fill="#d3412f" text-anchor="end" >+35.5%</text>
<rect x="60" y="669" width="1548" height="94" rx="18" fill="#f7f7f7"/>
<text x="90.0" y="709.0" font-size="26" font-family="monospace" font-weight="800" fill="#090909" text-anchor="start" >median wall ↓</text>
<text x="470.0" y="709.0" font-size="25" font-family="monospace" font-weight="700" fill="#090909" text-anchor="start" >776s</text>
<text x="650.0" y="709.0" font-size="25" font-family="monospace" font-weight="800" fill="#2d2af4" text-anchor="start" >929s</text>
<rect x="865" y="685" width="245" height="26" rx="8" fill="#d8d8d8"/>
<rect x="865" y="721" width="293.2" height="26" rx="8" fill="#2d2af4"/>
<text x="1485.0" y="725.0" font-size="27" font-family="monospace" font-weight="900" fill="#d3412f" text-anchor="end" >+19.7%</text>
<text x="70.0" y="850.0" font-size="22" font-family="monospace" font-weight="700" fill="#4a4d57" text-anchor="start" >Outcome ↑ improved; resource columns ↓ got worse. Agent-side metrics only: OM worker cost is not included.</text>
<text x="70.0" y="878.0" font-size="19" font-family="monospace" font-weight="650" fill="#4a4d57" text-anchor="start" >Bars are capped for layout; exact deltas are printed at right.</text>
<text x="70.0" y="912.0" font-size="20" font-family="monospace" font-weight="650" fill="#4a4d57" text-anchor="start" >Source: reports/om-memory-pilot-w10/paired_manifest.json</text>
</svg>
