<svg xmlns="http://www.w3.org/2000/svg" width="1254" height="1254" viewBox="0 0 1254 1254">
<defs>
<pattern id="dots" width="9" height="9" patternUnits="userSpaceOnUse"><circle cx="1.2" cy="1.2" r="0.65" fill="#ece8dc" opacity="0.65"/></pattern>
<filter id="shadow" x="-20%" y="-20%" width="140%" height="140%"><feDropShadow dx="0" dy="18" stdDeviation="20" flood-color="#111" flood-opacity="0.18"/></filter>
<marker id="arrow" markerWidth="10" markerHeight="10" refX="8" refY="4" orient="auto"><path d="M0,0 L9,4 L0,8 Z" fill="#2d2af4"/></marker>
</defs>
<rect width="1254" height="1254" fill="#2d2af4"/>
<rect x="58" y="58" width="1138" height="1138" rx="42" fill="#fbfaf6" filter="url(#shadow)"/>
<rect x="58" y="58" width="1138" height="1138" rx="42" fill="url(#dots)" opacity="0.82"/>
<text x="105.0" y="145.0" font-size="52" font-family="Georgia,serif" font-weight="800" fill="#090909" text-anchor="start" >Where memory hurt</text>
<text x="108.0" y="190.0" font-size="24" font-family="monospace" font-weight="700" fill="#4a4d57" text-anchor="start" >18 largest regressions · buckets are analyst-classified</text>
<text x="145.0" y="294.0" font-size="27" font-family="Georgia,serif" font-weight="800" fill="#090909" text-anchor="start" >Memory distraction / over-expansion</text>
<rect x="145" y="318" width="530" height="34" rx="12" fill="#e7e2d7"/>
<rect x="145" y="318" width="530.0" height="34" rx="12" fill="#d3412f" opacity="0.9"/>
<text x="705.0" y="346.0" font-size="34" font-family="monospace" font-weight="900" fill="#d3412f" text-anchor="start" >6</text>
<text x="145.0" y="383.0" font-size="20" font-family="monospace" font-weight="650" fill="#4a4d57" text-anchor="start" >broadened into nearby plumbing without closing the contract</text>
<text x="145.0" y="422.0" font-size="27" font-family="Georgia,serif" font-weight="800" fill="#090909" text-anchor="start" >Normal model variance</text>
<rect x="145" y="446" width="530" height="34" rx="12" fill="#e7e2d7"/>
<rect x="145" y="446" width="353.3" height="34" rx="12" fill="#d3412f" opacity="0.9"/>
<text x="705.0" y="474.0" font-size="34" font-family="monospace" font-weight="900" fill="#d3412f" text-anchor="start" >4</text>
<text x="145.0" y="511.0" font-size="20" font-family="monospace" font-weight="650" fill="#4a4d57" text-anchor="start" >same surface, hidden edge case still failed</text>
<text x="145.0" y="550.0" font-size="27" font-family="Georgia,serif" font-weight="800" fill="#090909" text-anchor="start" >API / extension seam missed</text>
<rect x="145" y="574" width="530" height="34" rx="12" fill="#e7e2d7"/>
<rect x="145" y="574" width="265.0" height="34" rx="12" fill="#d3412f" opacity="0.9"/>
<text x="705.0" y="602.0" font-size="34" font-family="monospace" font-weight="900" fill="#d3412f" text-anchor="start" >3</text>
<text x="145.0" y="639.0" font-size="20" font-family="monospace" font-weight="650" fill="#4a4d57" text-anchor="start" >public export or extension contract broke</text>
<text x="145.0" y="678.0" font-size="27" font-family="Georgia,serif" font-weight="800" fill="#090909" text-anchor="start" >Missed integration</text>
<rect x="145" y="702" width="530" height="34" rx="12" fill="#e7e2d7"/>
<rect x="145" y="702" width="265.0" height="34" rx="12" fill="#d3412f" opacity="0.9"/>
<text x="705.0" y="730.0" font-size="34" font-family="monospace" font-weight="900" fill="#d3412f" text-anchor="start" >3</text>
<text x="145.0" y="767.0" font-size="20" font-family="monospace" font-weight="650" fill="#4a4d57" text-anchor="start" >companion/shared file skipped</text>
<text x="145.0" y="806.0" font-size="27" font-family="Georgia,serif" font-weight="800" fill="#090909" text-anchor="start" >Stalled / empty patch</text>
<rect x="145" y="830" width="530" height="34" rx="12" fill="#e7e2d7"/>
<rect x="145" y="830" width="88.3" height="34" rx="12" fill="#d08a00" opacity="0.9"/>
<text x="705.0" y="858.0" font-size="34" font-family="monospace" font-weight="900" fill="#d08a00" text-anchor="start" >1</text>
<text x="145.0" y="895.0" font-size="20" font-family="monospace" font-weight="650" fill="#4a4d57" text-anchor="start" >search never turned into a diff</text>
<text x="145.0" y="934.0" font-size="27" font-family="Georgia,serif" font-weight="800" fill="#090909" text-anchor="start" >Tooling/env</text>
<rect x="145" y="958" width="530" height="34" rx="12" fill="#e7e2d7"/>
<rect x="145" y="958" width="88.3" height="34" rx="12" fill="#d08a00" opacity="0.9"/>
<text x="705.0" y="986.0" font-size="34" font-family="monospace" font-weight="900" fill="#d08a00" text-anchor="start" >1</text>
<text x="145.0" y="1023.0" font-size="20" font-family="monospace" font-weight="650" fill="#4a4d57" text-anchor="start" >xauth missing; not model reasoning</text>
<text x="145.0" y="1080.0" font-size="25" font-family="Georgia,serif" font-weight="800" fill="#090909" text-anchor="start" >Biggest risk: remembering the wrong layer or missing the public seam.</text>
<line x1="105" y1="1130" x2="1149" y2="1130" stroke="#090909" stroke-width="2" opacity="0.16"/>
<text x="108.0" y="1168.0" font-size="20" font-family="monospace" font-weight="700" fill="#4a4d57" text-anchor="start" >DeepSWE · pi-observational-memory vs baseline · 113 paired tasks · thinking: high</text>
</svg>
